<?xml version="1.0" standalone="no"?><!DOCTYPE svg PUBLIC "-//W3C//DTD SVG 1.1//EN" "http://www.w3.org/Graphics/SVG/1.1/DTD/svg11.dtd"><svg t="1686655821970" class="icon" viewBox="0 0 1024 1024" version="1.1" xmlns="http://www.w3.org/2000/svg" p-id="3537" xmlns:xlink="http://www.w3.org/1999/xlink" width="200" height="200"><path d="M64 105.472V373.76a34.304 34.304 0 0 0 68.608 0V180.224l218.112 218.112c12.8 12.8 33.792 12.8 46.592 0s12.8-33.792 0-46.592L179.2 133.632h193.536a34.304 34.304 0 0 0 0-68.608H104.448c-25.088 0-40.448 12.8-40.448 40.448zM917.504 65.024h-268.288a34.304 34.304 0 0 0 0 68.608h193.536L624.64 351.744c-12.8 12.8-12.8 33.792 0 46.592s33.792 12.8 46.592 0l218.112-218.112V373.76a34.304 34.304 0 0 0 68.608 0V105.472c0-27.648-15.36-40.448-40.448-40.448zM104.448 956.928h268.288a34.304 34.304 0 0 0 0-68.608H179.2l218.112-218.112c12.8-12.8 12.8-33.792 0-46.592s-33.792-12.8-46.592 0l-218.112 218.112v-193.536a34.304 34.304 0 0 0-68.608 0V916.48c0 27.648 15.36 40.448 40.448 40.448zM957.952 916.48v-268.288a34.304 34.304 0 0 0-68.608 0v193.536l-218.112-218.112c-12.8-12.8-33.792-12.8-46.592 0s-12.8 33.792 0 46.592l218.112 218.112h-193.536a34.304 34.304 0 0 0 0 68.608h268.288c25.088 0 40.448-12.8 40.448-40.448z" fill="#2c2c2c" p-id="3538"></path></svg>