<?xml version="1.0" standalone="no"?><!DOCTYPE svg PUBLIC "-//W3C//DTD SVG 1.1//EN" "http://www.w3.org/Graphics/SVG/1.1/DTD/svg11.dtd"><svg t="1686655768470" class="icon" viewBox="0 0 1024 1024" version="1.1" xmlns="http://www.w3.org/2000/svg" p-id="2384" xmlns:xlink="http://www.w3.org/1999/xlink" width="200" height="200"><path d="M407.552 366.592V97.28a34.304 34.304 0 0 0-68.608 0v194.56L121.856 72.704c-12.8-12.8-33.28-12.8-46.592 0-12.8 12.8-12.8 33.792 0 46.592L292.864 337.92H99.84a34.304 34.304 0 0 0 0 68.608h267.776c25.088 0.512 40.448-12.8 39.936-39.936zM655.36 407.04l267.776-0.512a34.304 34.304 0 0 0 0-68.608l-193.024 0.512L947.2 118.784c12.8-12.8 12.8-33.792 0-46.592s-33.792-12.8-46.592 0L683.52 291.84l-0.512-194.56a34.304 34.304 0 0 0-68.608 0l0.512 269.312c0.512 27.648 15.872 40.448 40.448 40.448zM367.616 613.888l-267.776-0.512a34.304 34.304 0 0 0 0 68.608l193.024 0.512L75.264 901.12c-12.8 12.8-12.8 33.792 0 46.592s33.792 12.8 46.592 0l217.6-218.624-0.512 194.56a34.304 34.304 0 0 0 68.608 0l0.512-269.312c0-27.648-15.36-40.448-40.448-40.448zM614.912 654.336l0.512 269.312a34.304 34.304 0 0 0 68.608 0l-0.512-194.56 217.6 218.624c12.8 12.8 33.792 12.8 46.592 0s12.8-33.792 0-46.592l-218.112-218.624 193.024-0.512a34.304 34.304 0 0 0 0-68.608l-267.776 0.512c-25.088 0-39.936 12.8-39.936 40.448z" fill="#2c2c2c" p-id="2385"></path></svg>